# Blender 3.6.4
# www.blender.org
mtllib DarumaBody.mtl
o 円柱
v -0.000000 -0.973706 -0.917306
v 0.000000 -0.893574 -1.000000
v 0.000000 0.973706 -0.917306
v 0.000000 0.893574 -1.000000
v 0.178958 -0.973706 -0.899680
v 0.195090 -0.893574 -0.980785
v 0.178958 0.973706 -0.899680
v 0.195090 0.893574 -0.980785
v 0.351038 -0.973706 -0.847480
v 0.382683 -0.893574 -0.923880
v 0.351038 0.973706 -0.847480
v 0.382683 0.893574 -0.923880
v 0.509628 -0.973706 -0.762712
v 0.555570 -0.893574 -0.831470
v 0.509628 0.973706 -0.762712
v 0.555570 0.893574 -0.831470
v 0.648633 -0.973706 -0.648633
v 0.707107 -0.893574 -0.707107
v 0.648633 0.973706 -0.648633
v 0.707107 0.893574 -0.707107
v 0.762712 -0.973706 -0.509628
v 0.831470 -0.893574 -0.555570
v 0.762712 0.973706 -0.509628
v 0.831470 0.893574 -0.555570
v 0.847480 -0.973706 -0.351038
v 0.923880 -0.893574 -0.382683
v 0.847480 0.973706 -0.351038
v 0.923880 0.893574 -0.382683
v 0.899680 -0.973706 -0.178958
v 0.980785 -0.893574 -0.195090
v 0.899680 0.973706 -0.178958
v 0.980785 0.893574 -0.195090
v 0.917306 -0.973706 -0.000000
v 1.000000 -0.893574 0.000000
v 0.917306 0.973706 0.000000
v 1.000000 0.893574 0.000000
v 0.899680 -0.973706 0.178958
v 0.980785 -0.893574 0.195090
v 0.899680 0.973706 0.178958
v 0.980785 0.893574 0.195090
v 0.847480 -0.973706 0.351038
v 0.923880 -0.893574 0.382683
v 0.847480 0.973706 0.351038
v 0.923880 0.893574 0.382683
v 0.762712 -0.973706 0.509628
v 0.831470 -0.893574 0.555570
v 0.762712 0.973706 0.509628
v 0.831470 0.893574 0.555570
v 0.648633 -0.973706 0.648633
v 0.707107 -0.893574 0.707107
v 0.648633 0.973706 0.648633
v 0.707107 0.893574 0.707107
v 0.509628 -0.973706 0.762712
v 0.555570 -0.893574 0.831470
v 0.509628 0.973706 0.762712
v 0.555570 0.893574 0.831470
v 0.351038 -0.973706 0.847480
v 0.382683 -0.893574 0.923880
v 0.351038 0.973706 0.847480
v 0.382683 0.893574 0.923880
v 0.178958 -0.973706 0.899680
v 0.195090 -0.893574 0.980785
v 0.178958 0.973706 0.899680
v 0.195090 0.893574 0.980785
v 0.000000 -0.973706 0.917306
v 0.000000 -0.893574 1.000000
v -0.000000 0.973706 0.917306
v 0.000000 0.893574 1.000000
v -0.178958 -0.973706 0.899680
v -0.195090 -0.893574 0.980785
v -0.178958 0.973706 0.899680
v -0.195090 0.893574 0.980785
v -0.351038 -0.973706 0.847480
v -0.382683 -0.893574 0.923880
v -0.351038 0.973706 0.847480
v -0.382683 0.893574 0.923880
v -0.509628 -0.973706 0.762712
v -0.555570 -0.893574 0.831470
v -0.509628 0.973706 0.762712
v -0.555570 0.893574 0.831470
v -0.648633 -0.973706 0.648633
v -0.707107 -0.893574 0.707107
v -0.648633 0.973706 0.648633
v -0.707107 0.893574 0.707107
v -0.762712 -0.973706 0.509628
v -0.831470 -0.893574 0.555570
v -0.762712 0.973706 0.509628
v -0.831470 0.893574 0.555570
v -0.847480 -0.973706 0.351038
v -0.923880 -0.893574 0.382683
v -0.847480 0.973706 0.351038
v -0.923880 0.893574 0.382683
v -0.899680 -0.973706 0.178958
v -0.980785 -0.893574 0.195090
v -0.899680 0.973706 0.178958
v -0.980785 0.893574 0.195090
v -0.917306 -0.973706 0.000000
v -1.000000 -0.893574 0.000000
v -0.917306 0.973706 -0.000000
v -1.000000 0.893574 0.000000
v -0.899680 -0.973706 -0.178958
v -0.980785 -0.893574 -0.195090
v -0.899680 0.973706 -0.178958
v -0.980785 0.893574 -0.195090
v -0.847480 -0.973706 -0.351038
v -0.923880 -0.893574 -0.382683
v -0.847480 0.973706 -0.351038
v -0.923880 0.893574 -0.382683
v -0.762712 -0.973706 -0.509628
v -0.831470 -0.893574 -0.555570
v -0.762712 0.973706 -0.509628
v -0.831470 0.893574 -0.555570
v -0.648633 -0.973706 -0.648633
v -0.707107 -0.893574 -0.707107
v -0.648633 0.973706 -0.648633
v -0.707107 0.893574 -0.707107
v -0.509628 -0.973706 -0.762712
v -0.555570 -0.893574 -0.831470
v -0.509628 0.973706 -0.762712
v -0.555570 0.893574 -0.831470
v -0.351038 -0.973706 -0.847480
v -0.382683 -0.893574 -0.923880
v -0.351038 0.973706 -0.847480
v -0.382683 0.893574 -0.923880
v -0.178958 -0.973706 -0.899680
v -0.195090 -0.893574 -0.980785
v -0.178958 0.973706 -0.899680
v -0.195090 0.893574 -0.980785
vn -0.0980 -0.0000 -0.9952
vn 0.4714 -0.0000 -0.8819
vn 0.6344 -0.0000 -0.7730
vn 0.7730 -0.0000 -0.6344
vn 0.8819 -0.0000 -0.4714
vn 0.9569 -0.0000 -0.2903
vn 0.9952 -0.0000 -0.0980
vn 0.9952 -0.0000 0.0980
vn 0.9569 -0.0000 0.2903
vn 0.8819 -0.0000 0.4714
vn 0.7730 -0.0000 0.6344
vn 0.6344 -0.0000 0.7730
vn 0.4714 -0.0000 0.8819
vn 0.2903 -0.0000 0.9569
vn 0.0980 -0.0000 0.9952
vn -0.0980 -0.0000 0.9952
vn -0.2903 -0.0000 0.9569
vn -0.4714 -0.0000 0.8819
vn -0.6344 -0.0000 0.7730
vn -0.7730 -0.0000 0.6344
vn -0.8819 -0.0000 0.4714
vn -0.9569 -0.0000 0.2903
vn -0.9952 -0.0000 0.0980
vn -0.9952 -0.0000 -0.0980
vn -0.9569 -0.0000 -0.2903
vn -0.8819 -0.0000 -0.4714
vn -0.7730 -0.0000 -0.6344
vn -0.6344 -0.0000 -0.7730
vn -0.4714 -0.0000 -0.8819
vn -0.2903 -0.0000 -0.9569
vn 0.2903 -0.0000 -0.9569
vn -0.0000 1.0000 -0.0000
vn 0.0980 -0.0000 -0.9952
vn 0.0684 -0.7165 -0.6943
vn 0.0684 0.7165 -0.6943
vn 0.2025 -0.7165 -0.6676
vn 0.2025 0.7165 -0.6676
vn 0.3289 -0.7165 -0.6152
vn 0.3289 0.7165 -0.6152
vn 0.4426 -0.7165 -0.5393
vn 0.4426 0.7165 -0.5393
vn 0.5393 -0.7165 -0.4426
vn 0.5393 0.7165 -0.4426
vn 0.6153 -0.7165 -0.3289
vn 0.6152 0.7165 -0.3289
vn 0.6676 -0.7165 -0.2025
vn 0.6676 0.7165 -0.2025
vn 0.6943 -0.7165 -0.0684
vn 0.6943 0.7165 -0.0684
vn 0.6943 -0.7165 0.0684
vn 0.6943 0.7165 0.0684
vn 0.6676 -0.7165 0.2025
vn 0.6676 0.7165 0.2025
vn 0.6152 -0.7165 0.3289
vn 0.6153 0.7165 0.3289
vn 0.5393 -0.7165 0.4426
vn 0.5393 0.7165 0.4426
vn 0.4426 -0.7165 0.5393
vn 0.4426 0.7165 0.5393
vn 0.3289 -0.7165 0.6152
vn 0.3289 0.7165 0.6152
vn 0.2025 -0.7165 0.6676
vn 0.2025 0.7165 0.6676
vn 0.0684 -0.7165 0.6943
vn 0.0684 0.7165 0.6943
vn -0.0684 -0.7165 0.6943
vn -0.0684 0.7165 0.6943
vn -0.2025 -0.7165 0.6676
vn -0.2025 0.7165 0.6676
vn -0.3289 -0.7165 0.6152
vn -0.3289 0.7165 0.6152
vn -0.4426 -0.7165 0.5393
vn -0.4426 0.7165 0.5393
vn -0.5393 -0.7165 0.4426
vn -0.5393 0.7165 0.4426
vn -0.6153 -0.7165 0.3289
vn -0.6152 0.7165 0.3289
vn -0.6676 -0.7165 0.2025
vn -0.6676 0.7165 0.2025
vn -0.6943 -0.7165 0.0684
vn -0.6943 0.7165 0.0684
vn -0.6943 -0.7165 -0.0684
vn -0.6943 0.7165 -0.0684
vn -0.6676 -0.7165 -0.2025
vn -0.6676 0.7165 -0.2025
vn -0.6152 -0.7165 -0.3289
vn -0.6153 0.7165 -0.3289
vn -0.5393 -0.7165 -0.4426
vn -0.5393 0.7165 -0.4426
vn -0.4426 -0.7165 -0.5393
vn -0.4426 0.7165 -0.5393
vn -0.3289 -0.7165 -0.6152
vn -0.3289 0.7165 -0.6152
vn -0.2025 -0.7165 -0.6676
vn -0.2025 0.7165 -0.6676
vn -0.0684 -0.7165 -0.6943
vn -0.0684 0.7165 -0.6943
vn -0.0000 -1.0000 -0.0000
vn 0.6152 -0.7165 -0.3289
vn 0.6153 0.7165 -0.3289
vn 0.6153 -0.7165 0.3289
vn 0.6152 0.7165 0.3289
vn -0.6152 -0.7165 0.3289
vn -0.6153 0.7165 0.3289
vn -0.6153 -0.7165 -0.3289
vn -0.6152 0.7165 -0.3289
vt 0.506381 0.094181
vt 0.523783 0.260303
vt 0.506381 0.260303
vt 0.558928 0.094181
vt 0.575321 0.260303
vt 0.558928 0.260303
vt 0.575321 0.094181
vt 0.590073 0.260303
vt 0.590073 0.094181
vt 0.602619 0.260303
vt 0.790982 0.094181
vt 0.805735 0.260303
vt 0.790982 0.260303
vt 0.805735 0.094181
vt 0.822127 0.260303
vt 0.822127 0.094181
vt 0.839529 0.260303
vt 0.839529 0.094181
vt 0.857272 0.260303
vt 0.857272 0.094181
vt 0.874674 0.260303
vt 0.874674 0.094181
vt 0.891066 0.260303
vt 0.891066 0.094181
vt 0.905819 0.260303
vt 0.462690 0.448665
vt 0.477443 0.614786
vt 0.462690 0.614786
vt 0.477443 0.448665
vt 0.493835 0.614786
vt 0.493835 0.448665
vt 0.511237 0.614786
vt 0.511237 0.448665
vt 0.528980 0.614786
vt 0.528980 0.448665
vt 0.546382 0.614786
vt 0.546382 0.448665
vt 0.562774 0.614786
vt 0.562774 0.448665
vt 0.577527 0.614786
vt 0.577527 0.448665
vt 0.590073 0.614786
vt 0.778436 0.448665
vt 0.793188 0.614786
vt 0.778436 0.614786
vt 0.793188 0.448665
vt 0.809581 0.614786
vt 0.809581 0.448665
vt 0.826983 0.614786
vt 0.826983 0.448665
vt 0.844726 0.614786
vt 0.844726 0.448665
vt 0.862128 0.614786
vt 0.862128 0.448665
vt 0.878520 0.614786
vt 0.878520 0.448665
vt 0.893273 0.614786
vt 0.893273 0.448665
vt 0.905819 0.614786
vt 0.462690 0.094181
vt 0.475237 0.260303
vt 0.462690 0.260303
vt 0.475237 0.094181
vt 0.489989 0.260303
vt 0.489989 0.094181
vt 0.541526 0.094181
vt 0.541526 0.260303
vt 0.104805 0.208355
vt 0.160154 0.104805
vt 0.263704 0.160154
vt 0.523783 0.094181
vt 0.270866 0.579037
vt 0.266879 0.560902
vt 0.274328 0.561635
vt 0.274328 0.175383
vt 0.266879 0.192392
vt 0.266879 0.176117
vt 0.257476 0.591901
vt 0.263704 0.576865
vt 0.270866 0.157981
vt 0.254219 0.610182
vt 0.264077 0.595429
vt 0.264077 0.141589
vt 0.257476 0.145117
vt 0.241673 0.622728
vt 0.248433 0.605434
vt 0.254219 0.126836
vt 0.248433 0.131584
vt 0.223392 0.625985
vt 0.236925 0.616943
vt 0.236925 0.120076
vt 0.241673 0.114290
vt 0.226920 0.632586
vt 0.208355 0.632213
vt 0.223392 0.111033
vt 0.226920 0.104433
vt 0.193126 0.642837
vt 0.210528 0.639376
vt 0.210528 0.097643
vt 0.208355 0.104805
vt 0.176117 0.635389
vt 0.192392 0.635389
vt 0.192392 0.101630
vt 0.193126 0.094181
vt 0.157981 0.639376
vt 0.175383 0.642837
vt 0.175383 0.094181
vt 0.176117 0.101630
vt 0.145117 0.625985
vt 0.160154 0.632213
vt 0.157981 0.097643
vt 0.126836 0.622728
vt 0.141589 0.632586
vt 0.141589 0.104433
vt 0.145117 0.111033
vt 0.114290 0.610182
vt 0.131584 0.616943
vt 0.126836 0.114290
vt 0.131584 0.120076
vt 0.111033 0.591901
vt 0.120076 0.605434
vt 0.120076 0.131584
vt 0.114290 0.126836
vt 0.104433 0.595429
vt 0.104805 0.576864
vt 0.111033 0.145117
vt 0.104433 0.141589
vt 0.094181 0.561635
vt 0.097643 0.579037
vt 0.097643 0.157981
vt 0.104805 0.160154
vt 0.101630 0.544626
vt 0.101630 0.560902
vt 0.101630 0.176117
vt 0.094181 0.175383
vt 0.097643 0.526490
vt 0.094181 0.543892
vt 0.094181 0.193126
vt 0.101630 0.192392
vt 0.111033 0.513626
vt 0.104805 0.528663
vt 0.097643 0.210528
vt 0.114290 0.495345
vt 0.104433 0.510098
vt 0.104433 0.226920
vt 0.111033 0.223392
vt 0.126836 0.482799
vt 0.120076 0.500093
vt 0.114290 0.241673
vt 0.120076 0.236925
vt 0.145117 0.479543
vt 0.131584 0.488585
vt 0.131584 0.248433
vt 0.126836 0.254219
vt 0.141589 0.472942
vt 0.160154 0.473314
vt 0.145117 0.257476
vt 0.141589 0.264077
vt 0.175383 0.462690
vt 0.157981 0.466152
vt 0.157981 0.270866
vt 0.160154 0.263704
vt 0.192392 0.470139
vt 0.176117 0.470139
vt 0.176117 0.266879
vt 0.175383 0.274328
vt 0.210528 0.466152
vt 0.193126 0.462690
vt 0.193126 0.274328
vt 0.192392 0.266879
vt 0.223392 0.479543
vt 0.208355 0.473314
vt 0.208355 0.263704
vt 0.210528 0.270866
vt 0.241673 0.482799
vt 0.226920 0.472942
vt 0.226920 0.264077
vt 0.223392 0.257476
vt 0.254219 0.495345
vt 0.236925 0.488585
vt 0.241673 0.254219
vt 0.236925 0.248433
vt 0.257476 0.513626
vt 0.248433 0.500094
vt 0.248433 0.236925
vt 0.254219 0.241673
vt 0.264077 0.510098
vt 0.263704 0.528663
vt 0.257476 0.223392
vt 0.264076 0.226920
vt 0.274328 0.543892
vt 0.270866 0.526490
vt 0.270866 0.210528
vt 0.263704 0.208355
vt 0.266879 0.544626
vt 0.274328 0.193126
vt 0.602619 0.094181
vt 0.905819 0.094181
vt 0.590073 0.448665
vt 0.905819 0.448665
s 0
usemtl マテリアル
f 128/1/1 2/2/1 126/3/1
f 12/4/2 14/5/2 10/6/2
f 16/7/3 18/8/3 14/5/3
f 20/9/4 22/10/4 18/8/4
f 24/11/5 26/12/5 22/13/5
f 28/14/6 30/15/6 26/12/6
f 32/16/7 34/17/7 30/15/7
f 36/18/8 38/19/8 34/17/8
f 40/20/9 42/21/9 38/19/9
f 44/22/10 46/23/10 42/21/10
f 48/24/11 50/25/11 46/23/11
f 52/26/12 54/27/12 50/28/12
f 56/29/13 58/30/13 54/27/13
f 60/31/14 62/32/14 58/30/14
f 64/33/15 66/34/15 62/32/15
f 68/35/16 70/36/16 66/34/16
f 72/37/17 74/38/17 70/36/17
f 76/39/18 78/40/18 74/38/18
f 80/41/19 82/42/19 78/40/19
f 84/43/20 86/44/20 82/45/20
f 88/46/21 90/47/21 86/44/21
f 92/48/22 94/49/22 90/47/22
f 96/50/23 98/51/23 94/49/23
f 100/52/24 102/53/24 98/51/24
f 104/54/25 106/55/25 102/53/25
f 108/56/26 110/57/26 106/55/26
f 112/58/27 114/59/27 110/57/27
f 116/60/28 118/61/28 114/62/28
f 120/63/29 122/64/29 118/61/29
f 124/65/30 126/3/30 122/64/30
f 8/66/31 10/6/31 6/67/31
f 75/68/32 43/69/32 11/70/32
f 4/71/33 6/67/33 2/2/33
f 6/72/34 1/73/34 2/74/34
f 8/75/35 3/76/35 7/77/35
f 6/72/36 9/78/36 5/79/36
f 8/75/37 11/70/37 12/80/37
f 14/81/38 9/78/38 10/82/38
f 16/83/39 11/70/39 15/84/39
f 18/85/40 13/86/40 14/81/40
f 20/87/41 15/84/41 19/88/41
f 18/85/42 21/89/42 17/90/42
f 20/87/43 23/91/43 24/92/43
f 22/93/44 25/94/44 21/89/44
f 24/92/45 27/95/45 28/96/45
f 30/97/46 25/94/46 26/98/46
f 32/99/47 27/95/47 31/100/47
f 30/97/48 33/101/48 29/102/48
f 32/99/49 35/103/49 36/104/49
f 38/105/50 33/101/50 34/106/50
f 40/107/51 35/103/51 39/108/51
f 38/105/52 41/109/52 37/110/52
f 40/107/53 43/69/53 44/111/53
f 46/112/54 41/109/54 42/113/54
f 48/114/55 43/69/55 47/115/55
f 50/116/56 45/117/56 46/112/56
f 52/118/57 47/115/57 51/119/57
f 50/116/58 53/120/58 49/121/58
f 52/118/59 55/122/59 56/123/59
f 54/124/60 57/125/60 53/120/60
f 56/123/61 59/126/61 60/127/61
f 62/128/62 57/125/62 58/129/62
f 64/130/63 59/126/63 63/131/63
f 62/128/64 65/132/64 61/133/64
f 64/130/65 67/134/65 68/135/65
f 70/136/66 65/132/66 66/137/66
f 72/138/67 67/134/67 71/139/67
f 70/136/68 73/140/68 69/141/68
f 72/138/69 75/68/69 76/142/69
f 78/143/70 73/140/70 74/144/70
f 80/145/71 75/68/71 79/146/71
f 82/147/72 77/148/72 78/143/72
f 84/149/73 79/146/73 83/150/73
f 82/147/74 85/151/74 81/152/74
f 84/149/75 87/153/75 88/154/75
f 86/155/76 89/156/76 85/151/76
f 88/154/77 91/157/77 92/158/77
f 94/159/78 89/156/78 90/160/78
f 96/161/79 91/157/79 95/162/79
f 94/159/80 97/163/80 93/164/80
f 96/161/81 99/165/81 100/166/81
f 102/167/82 97/163/82 98/168/82
f 104/169/83 99/165/83 103/170/83
f 102/167/84 105/171/84 101/172/84
f 104/169/85 107/173/85 108/174/85
f 110/175/86 105/171/86 106/176/86
f 112/177/87 107/173/87 111/178/87
f 114/179/88 109/180/88 110/175/88
f 116/181/89 111/178/89 115/182/89
f 114/179/90 117/183/90 113/184/90
f 116/181/91 119/185/91 120/186/91
f 118/187/92 121/188/92 117/183/92
f 120/186/93 123/189/93 124/190/93
f 126/191/94 121/188/94 122/192/94
f 128/193/95 123/189/95 127/194/95
f 126/191/96 1/73/96 125/195/96
f 128/193/97 3/76/97 4/196/97
f 61/133/98 93/164/98 125/195/98
f 128/1/1 4/71/1 2/2/1
f 12/4/2 16/7/2 14/5/2
f 16/7/3 20/9/3 18/8/3
f 20/9/4 24/197/4 22/10/4
f 24/11/5 28/14/5 26/12/5
f 28/14/6 32/16/6 30/15/6
f 32/16/7 36/18/7 34/17/7
f 36/18/8 40/20/8 38/19/8
f 40/20/9 44/22/9 42/21/9
f 44/22/10 48/24/10 46/23/10
f 48/24/11 52/198/11 50/25/11
f 52/26/12 56/29/12 54/27/12
f 56/29/13 60/31/13 58/30/13
f 60/31/14 64/33/14 62/32/14
f 64/33/15 68/35/15 66/34/15
f 68/35/16 72/37/16 70/36/16
f 72/37/17 76/39/17 74/38/17
f 76/39/18 80/41/18 78/40/18
f 80/41/19 84/199/19 82/42/19
f 84/43/20 88/46/20 86/44/20
f 88/46/21 92/48/21 90/47/21
f 92/48/22 96/50/22 94/49/22
f 96/50/23 100/52/23 98/51/23
f 100/52/24 104/54/24 102/53/24
f 104/54/25 108/56/25 106/55/25
f 108/56/26 112/58/26 110/57/26
f 112/58/27 116/200/27 114/59/27
f 116/60/28 120/63/28 118/61/28
f 120/63/29 124/65/29 122/64/29
f 124/65/30 128/1/30 126/3/30
f 8/66/31 12/4/31 10/6/31
f 11/70/32 7/77/32 3/76/32
f 3/76/32 127/194/32 123/189/32
f 123/189/32 119/185/32 107/173/32
f 119/185/32 115/182/32 107/173/32
f 115/182/32 111/178/32 107/173/32
f 107/173/32 103/170/32 99/165/32
f 99/165/32 95/162/32 91/157/32
f 91/157/32 87/153/32 75/68/32
f 87/153/32 83/150/32 75/68/32
f 83/150/32 79/146/32 75/68/32
f 75/68/32 71/139/32 67/134/32
f 67/134/32 63/131/32 59/126/32
f 59/126/32 55/122/32 43/69/32
f 55/122/32 51/119/32 43/69/32
f 51/119/32 47/115/32 43/69/32
f 43/69/32 39/108/32 35/103/32
f 35/103/32 31/100/32 27/95/32
f 27/95/32 23/91/32 11/70/32
f 23/91/32 19/88/32 11/70/32
f 19/88/32 15/84/32 11/70/32
f 11/70/32 3/76/32 123/189/32
f 107/173/32 99/165/32 91/157/32
f 75/68/32 67/134/32 59/126/32
f 43/69/32 35/103/32 27/95/32
f 11/70/32 123/189/32 107/173/32
f 107/173/32 91/157/32 75/68/32
f 75/68/32 59/126/32 43/69/32
f 43/69/32 27/95/32 11/70/32
f 11/70/32 107/173/32 75/68/32
f 4/71/33 8/66/33 6/67/33
f 6/72/34 5/79/34 1/73/34
f 8/75/35 4/196/35 3/76/35
f 6/72/36 10/82/36 9/78/36
f 8/75/37 7/77/37 11/70/37
f 14/81/38 13/86/38 9/78/38
f 16/83/39 12/80/39 11/70/39
f 18/85/40 17/90/40 13/86/40
f 20/87/41 16/83/41 15/84/41
f 18/85/42 22/93/42 21/89/42
f 20/87/43 19/88/43 23/91/43
f 22/93/99 26/98/99 25/94/99
f 24/92/100 23/91/100 27/95/100
f 30/97/46 29/102/46 25/94/46
f 32/99/47 28/96/47 27/95/47
f 30/97/48 34/106/48 33/101/48
f 32/99/49 31/100/49 35/103/49
f 38/105/50 37/110/50 33/101/50
f 40/107/51 36/104/51 35/103/51
f 38/105/52 42/113/52 41/109/52
f 40/107/53 39/108/53 43/69/53
f 46/112/101 45/117/101 41/109/101
f 48/114/102 44/111/102 43/69/102
f 50/116/56 49/121/56 45/117/56
f 52/118/57 48/114/57 47/115/57
f 50/116/58 54/124/58 53/120/58
f 52/118/59 51/119/59 55/122/59
f 54/124/60 58/129/60 57/125/60
f 56/123/61 55/122/61 59/126/61
f 62/128/62 61/133/62 57/125/62
f 64/130/63 60/127/63 59/126/63
f 62/128/64 66/137/64 65/132/64
f 64/130/65 63/131/65 67/134/65
f 70/136/66 69/141/66 65/132/66
f 72/138/67 68/135/67 67/134/67
f 70/136/68 74/144/68 73/140/68
f 72/138/69 71/139/69 75/68/69
f 78/143/70 77/148/70 73/140/70
f 80/145/71 76/142/71 75/68/71
f 82/147/72 81/152/72 77/148/72
f 84/149/73 80/145/73 79/146/73
f 82/147/74 86/155/74 85/151/74
f 84/149/75 83/150/75 87/153/75
f 86/155/103 90/160/103 89/156/103
f 88/154/104 87/153/104 91/157/104
f 94/159/78 93/164/78 89/156/78
f 96/161/79 92/158/79 91/157/79
f 94/159/80 98/168/80 97/163/80
f 96/161/81 95/162/81 99/165/81
f 102/167/82 101/172/82 97/163/82
f 104/169/83 100/166/83 99/165/83
f 102/167/84 106/176/84 105/171/84
f 104/169/85 103/170/85 107/173/85
f 110/175/105 109/180/105 105/171/105
f 112/177/106 108/174/106 107/173/106
f 114/179/88 113/184/88 109/180/88
f 116/181/89 112/177/89 111/178/89
f 114/179/90 118/187/90 117/183/90
f 116/181/91 115/182/91 119/185/91
f 118/187/92 122/192/92 121/188/92
f 120/186/93 119/185/93 123/189/93
f 126/191/94 125/195/94 121/188/94
f 128/193/95 124/190/95 123/189/95
f 126/191/96 2/74/96 1/73/96
f 128/193/97 127/194/97 3/76/97
f 125/195/98 1/73/98 5/79/98
f 5/79/98 9/78/98 125/195/98
f 9/78/98 13/86/98 125/195/98
f 13/86/98 17/90/98 21/89/98
f 21/89/98 25/94/98 13/86/98
f 25/94/98 29/102/98 13/86/98
f 29/102/98 33/101/98 37/110/98
f 37/110/98 41/109/98 29/102/98
f 41/109/98 45/117/98 29/102/98
f 45/117/98 49/121/98 53/120/98
f 53/120/98 57/125/98 45/117/98
f 57/125/98 61/133/98 45/117/98
f 61/133/98 65/132/98 69/141/98
f 69/141/98 73/140/98 61/133/98
f 73/140/98 77/148/98 61/133/98
f 77/148/98 81/152/98 85/151/98
f 85/151/98 89/156/98 77/148/98
f 89/156/98 93/164/98 77/148/98
f 93/164/98 97/163/98 101/172/98
f 101/172/98 105/171/98 93/164/98
f 105/171/98 109/180/98 93/164/98
f 109/180/98 113/184/98 117/183/98
f 117/183/98 121/188/98 109/180/98
f 121/188/98 125/195/98 109/180/98
f 125/195/98 13/86/98 29/102/98
f 29/102/98 45/117/98 61/133/98
f 61/133/98 77/148/98 93/164/98
f 93/164/98 109/180/98 125/195/98
f 125/195/98 29/102/98 61/133/98
